<svg xmlns="http://www.w3.org/2000/svg" viewBox="0 0 512 512" role="img" aria-label="Migo">
  <defs>
    <linearGradient id="g" x1="0" y1="0" x2="1" y2="1">
      <stop offset="0" stop-color="#6d8bff"/>
      <stop offset="1" stop-color="#9b6dff"/>
    </linearGradient>
  </defs>
  <rect width="512" height="512" fill="#0b1020"/>
  <path d="M168 350V206c0-8 10-12 15-6l66 66c8 8 22 8 30 0l66-66c5-6 15-2 15 6v144c0 9-7 16-16 16h-8c-9 0-16-7-16-16v-78l-37 37c-19 19-47 19-66 0l-37-37v78c0 9-7 16-16 16h-8c-9 0-16-7-16-16Z" fill="url(#g)"/>
</svg>
